<svg xmlns="http://www.w3.org/2000/svg" width="256" height="256" viewBox="0 0 100 100"><rect width="100" height="100" rx="20" fill="#e88d07"></rect><path fill="#fff" d="M66.80 34.07Q66.80 40.02 63.72 44.99Q60.64 49.97 54.76 53.11Q48.88 56.27 40.76 56.83L40.76 56.83L37.75 73.70Q36 83.42 28.23 83.42L28.23 83.42Q23.96 83.42 20.35 80.91Q16.75 78.39 14.58 73.20Q12.41 68.03 12.41 60.47L12.41 60.47Q12.41 46.25 16.99 36.35Q21.58 26.45 29.31 21.51Q37.05 16.57 46.36 16.57L46.36 16.57Q52.94 16.57 57.53 18.88Q62.11 21.19 64.45 25.15Q66.80 29.10 66.80 34.07L66.80 34.07ZM42.02 49.61Q56.37 47.80 56.37 34.70L56.37 34.70Q56.37 30.09 53.33 27.18Q50.28 24.27 43.91 24.27L43.91 24.27Q36.70 24.27 31.34 28.82Q25.99 33.38 23.08 41.46Q20.18 49.55 20.18 59.91L20.18 59.91Q20.18 64.25 21.05 67.61Q21.93 70.97 23.29 72.82Q24.66 74.67 25.92 74.67L25.92 74.67Q27.67 74.67 28.58 69.84L28.58 69.84L30.89 56.61Q28.16 56.20 28.51 56.27L28.51 56.27Q26.41 55.91 25.78 54.97Q25.15 54.02 25.15 52.55L25.15 52.55Q25.15 51.02 26.02 50.11Q26.90 49.20 28.44 49.20L28.44 49.20Q29.14 49.20 29.49 49.27L29.49 49.27Q31.17 49.55 32.08 49.61L32.08 49.61Q32.99 44.16 34.67 34.98L34.67 34.98Q35.09 32.60 36.59 31.59Q38.10 30.57 40.13 30.57L40.13 30.57Q42.44 30.57 43.45 31.45Q44.47 32.32 44.47 34.21L44.47 34.21Q44.47 35.34 44.33 36.03L44.33 36.03L42.02 49.61ZM73.87 38.55Q70.93 38.55 69.46 37.19Q67.99 35.82 67.99 33.38L67.99 33.38Q67.99 30.92 69.92 29.28Q71.84 27.63 74.71 27.63L74.71 27.63Q77.30 27.63 78.91 28.89Q80.52 30.15 80.52 32.46L80.52 32.46Q80.52 35.27 78.70 36.91Q76.88 38.55 73.87 38.55L73.87 38.55ZM73.31 76.14Q68.76 76.14 66.70 72.92Q64.63 69.70 64.63 64.39L64.63 64.39Q64.63 61.23 65.44 56.30Q66.24 51.36 67.50 47.09L67.50 47.09Q68.13 44.86 69.18 44.02Q70.23 43.17 72.54 43.17L72.54 43.17Q76.11 43.17 76.11 45.55L76.11 45.55Q76.11 47.30 74.78 53.67L74.78 53.67Q73.10 61.38 73.10 64.11L73.10 64.11Q73.10 66.20 73.66 67.33Q74.22 68.45 75.55 68.45L75.55 68.45Q76.81 68.45 78.70 66.69Q80.59 64.94 83.74 61.16L83.74 61.16Q84.58 60.19 85.63 60.19L85.63 60.19Q86.54 60.19 87.06 61.02Q87.59 61.87 87.59 63.34L87.59 63.34Q87.59 66.14 86.26 67.67L86.26 67.67Q79.33 76.14 73.31 76.14L73.31 76.14Z"></path></svg>